<?xml version="1.0" encoding="UTF-8" standalone="no"?>
<svg
   width="156mm"
   height="403mm"
   viewBox="0 0 156 403"
   version="1.1"
   preserveAspectRatio="xMidYMid meet"
   id="svg1"
   sodipodi:docname="box (2) (1).svg"
   inkscape:version="1.3.2 (091e20e, 2023-11-25, custom)"
   xmlns:inkscape="http://www.inkscape.org/namespaces/inkscape"
   xmlns:sodipodi="http://sodipodi.sourceforge.net/DTD/sodipodi-0.dtd"
   xmlns="http://www.w3.org/2000/svg"
   xmlns:svg="http://www.w3.org/2000/svg">
  <defs
     id="defs1" />
  <sodipodi:namedview
     id="namedview1"
     pagecolor="#ffffff"
     bordercolor="#000000"
     borderopacity="0.25"
     inkscape:showpageshadow="2"
     inkscape:pageopacity="0.0"
     inkscape:pagecheckerboard="0"
     inkscape:deskcolor="#d1d1d1"
     inkscape:document-units="mm"
     inkscape:zoom="0.51012717"
     inkscape:cx="781.17776"
     inkscape:cy="1026.2147"
     inkscape:window-width="1920"
     inkscape:window-height="991"
     inkscape:window-x="-9"
     inkscape:window-y="-9"
     inkscape:window-maximized="1"
     inkscape:current-layer="svg1" />
  <path
     d="m 1.5875,202.47083 v 39.025 h 3.0000001 v 24.39 H 1.5875 v 24.39 h 3.0000001 v 24.39 H 1.5875 v 24.39 h 3.0000001 v 24.39 H 1.5875 v 24.39 14.635 h 12.805001 v -3 h 24.39 v 3 h 12.805 v -39.025 h -3 v -24.39 h 3 v -24.39 h -3 v -24.39 h 3 v -24.39 h -3 v -24.39 h 3 v -24.39 -14.635 h -12.805 v 3 h -24.39 v -3 z"
     id="front_outsideCutPath"
     stroke="#FF0000"
     stroke-width="0.3"
     style="font-size:12px;fill:none;fill-rule:evenodd;stroke:#ff0000;stroke-width:0.3;stroke-linecap:round"
     vector-effect="non-scaling-stroke" />
  <path
     d="m 56,201.94166 v 39.025 h -3 v 24.39 h 3 v 24.39 h -3 v 24.39 h 3 v 24.39 h -3 v 24.39 h 3 v 24.39 14.635 h 9.805 v -3 h 24.39 v 3 H 100 v -39.025 h 3 v -24.39 h -3 v -24.39 h 3 v -24.39 h -3 v -24.39 h 3 v -24.39 h -3 v -24.39 -14.635 h -9.805 v 3 h -24.39 v -3 z"
     id="left_outsideCutPath"
     stroke="#FF0000"
     stroke-width="0.3"
     style="font-size:12px;fill:none;fill-rule:evenodd;stroke:#ff0000;stroke-width:0.3;stroke-linecap:round"
     vector-effect="non-scaling-stroke" />
  <path
     d="m 109,356 v 9.805 h -3 v 24.39 h 3 V 400 h 9.805 v 3 h 24.39 v -3 H 153 v -9.805 h 3 v -24.39 h -3 V 356 h -9.805 v -3 h -24.39 v 3 z"
     id="top_outsideCutPath"
     stroke="#FF0000"
     stroke-width="0.3"
     style="font-size:12px;fill:none;fill-rule:evenodd;stroke:#ff0000;stroke-width:0.3;stroke-linecap:round"
     vector-effect="non-scaling-stroke" />
  <path
     d="M 56,1.0583333 V 40.083334 h -3 v 24.39 h 3 v 24.39 h -3 v 24.390006 h 3 v 24.39 h -3 v 24.39 h 3 v 24.39 14.635 h 9.805 v -3 h 24.39 v 3 H 100 v -39.025 h 3 v -24.39 h -3 v -24.39 h 3 V 88.863334 h -3 v -24.39 h 3 v -24.39 h -3 v -24.39 V 1.0583333 H 90.195 V 4.0583334 H 65.805 V 1.0583333 Z"
     id="right_outsideCutPath"
     stroke="#FF0000"
     stroke-width="0.3"
     style="font-size:12px;fill:none;fill-rule:evenodd;stroke:#ff0000;stroke-width:0.3;stroke-linecap:round"
     vector-effect="non-scaling-stroke" />
  <path
     d="m 109,303 v 9.805 h -3 v 24.39 h 3 V 347 h 9.805 v 3 h 24.39 v -3 H 153 v -9.805 h 3 v -24.39 h -3 V 303 h -9.805 v -3 h -24.39 v 3 z"
     id="bottom_outsideCutPath"
     stroke="#FF0000"
     stroke-width="0.3"
     style="font-size:12px;fill:none;fill-rule:evenodd;stroke:#ff0000;stroke-width:0.3;stroke-linecap:round"
     vector-effect="non-scaling-stroke" />
  <path
     d="m 1.4124999,1.5875 v 39.025001 h 3 v 24.39 h -3 v 24.390003 h 3 v 24.390006 h -3 v 24.39 h 3 v 24.39 h -3 v 24.39 14.635 H 14.217499 v -3 h 24.39 v 3 h 12.805 v -39.025 h -3 v -24.39 h 3 v -24.39 h -3 V 89.392504 h 3 V 65.002501 h -3 v -24.39 h 3 v -24.39 V 1.5875 h -12.805 v 3.0000001 h -24.39 V 1.5875 Z"
     id="back_outsideCutPath"
     stroke="#FF0000"
     stroke-width="0.3"
     style="font-size:12px;fill:none;fill-rule:evenodd;stroke:#ff0000;stroke-width:0.3;stroke-linecap:round"
     vector-effect="non-scaling-stroke" />
  <rect
     style="display:inline;fill:#000000;fill-opacity:0;stroke:#000000;stroke-width:0.214313;stroke-dasharray:none"
     id="rect3-0"
     width="12.033318"
     height="4.9773326"
     x="20.136503"
     y="92.101837" />
  <rect
     style="display:inline;fill:#000000;fill-opacity:0;stroke:#000000;stroke-width:0.289026;stroke-miterlimit:4;stroke-dasharray:none"
     id="rect2-5-19"
     width="29.701885"
     height="28.710974"
     x="-53.202225"
     y="-41.069027"
     transform="matrix(0,-1,-1,0,0,0)"
     ry="14.105487"
     rx="14.850943" />
  <rect
     style="display:inline;fill:#000000;fill-opacity:0;stroke:#000000;stroke-width:0.289028;stroke-miterlimit:4;stroke-dasharray:none"
     id="rect2-5-1-2"
     width="24.210972"
     height="16.710972"
     x="-55.674652"
     y="-34.70248"
     transform="matrix(0,-1,-1,0,0,0)" />
</svg>
