<?xml version="1.0" encoding="UTF-8" standalone="no"?>
<svg
   width="604mm"
   height="186mm"
   viewBox="0 0 604 186"
   version="1.1"
   preserveAspectRatio="xMidYMid meet"
   id="svg1"
   sodipodi:docname="box (5).svg"
   inkscape:version="1.3.2 (091e20e, 2023-11-25, custom)"
   xmlns:inkscape="http://www.inkscape.org/namespaces/inkscape"
   xmlns:sodipodi="http://sodipodi.sourceforge.net/DTD/sodipodi-0.dtd"
   xmlns="http://www.w3.org/2000/svg"
   xmlns:svg="http://www.w3.org/2000/svg">
  <defs
     id="defs1" />
  <sodipodi:namedview
     id="namedview1"
     pagecolor="#ffffff"
     bordercolor="#000000"
     borderopacity="0.25"
     inkscape:showpageshadow="2"
     inkscape:pageopacity="0.0"
     inkscape:pagecheckerboard="0"
     inkscape:deskcolor="#d1d1d1"
     inkscape:document-units="mm"
     inkscape:zoom="1.1082712"
     inkscape:cx="394.30782"
     inkscape:cy="516.57031"
     inkscape:window-width="1600"
     inkscape:window-height="829"
     inkscape:window-x="-8"
     inkscape:window-y="-8"
     inkscape:window-maximized="1"
     inkscape:current-layer="svg1" />
  <path
     d="m 0,97 v 10.813 h 3 v 7.125 H 0 v 7.125 h 3 v 7.125 H 0 v 7.90089 L 13.938,137 h 7.125 7.125 7.125 7.125 7.125 7.125 7.125 7.125 7.125 v 0 h 7.125 v 0 h 7.125 7.125 7.125 7.125 7.125 7.125 7.125 7.125 7.125 7.125 7.125 7.125 7.125 7.125 7.125 l 13.987,0.0755 -0.05,-7.8875 h -3 v -7.125 h 3 v -7.125 h -3 v -7.125 h 3 V 100.688 97 Z"
     id="back_outsideCutPath"
     stroke="#FF0000"
     stroke-width="0.1"
     style="font-size:12px;fill:none;fill-rule:evenodd;stroke:#ff0000;stroke-width:0.1;stroke-linecap:round"
     vector-effect="non-scaling-stroke"
     sodipodi:nodetypes="cccccccccccccccccccccccccccccccccccccccccccccccccc" />
  <path
     d="m 212,97 v 10.813 h -3 v 7.125 h 3 v 7.125 h -3 v 7.125 h 3 v 7.95121 L 220.063,137 h 7.125 7.125 7.125 7.125 7.125 7.125 7.125 7.125 7.125 7.125 7.125 7.125 7.125 7.125 7.125 7.125 7.125 7.125 7.125 7.125 7.125 7.125 15.18231 L 392,129.188 h 3 v -7.125 h -3 v -7.125 h 3 v -7.125 h -3 V 100.688 97 Z"
     id="right_outsideCutPath"
     stroke="#FF0000"
     stroke-width="0.1"
     style="font-size:12px;fill:none;fill-rule:evenodd;stroke:#ff0000;stroke-width:0.1;stroke-linecap:round"
     vector-effect="non-scaling-stroke"
     sodipodi:nodetypes="ccccccccccccccccccccccccccccccccccccccccccccc" />
  <rect
     style="display:inline;fill:#000000;fill-opacity:0;stroke:#000000;stroke-width:0.289026;stroke-miterlimit:4;stroke-dasharray:none"
     id="rect2-5-19"
     width="29.701885"
     height="28.710974"
     x="-124.63868"
     y="103.48242"
     transform="scale(-1,1)"
     ry="14.105487"
     rx="14.850943" />
  <path
     d="m 0,141.95853 v 10.813 h 3 v 7.125 H 0 v 7.125 h 3 v 7.125 H 0 v 7.90089 l 13.938,-0.0889 h 7.125 7.125 7.125 7.125 7.125 7.125 7.125 7.125 7.125 v 0 h 7.125 v 0 h 7.125 7.125 7.125 7.125 7.125 7.125 7.125 7.125 7.125 7.125 7.125 7.125 7.125 7.125 7.125 l 13.987,0.0755 -0.05,-7.8875 h -3 v -7.125 h 3 v -7.125 h -3 v -7.125 h 3 v -7.125 -3.688 z"
     id="back_outsideCutPath-6"
     stroke="#FF0000"
     stroke-width="0.1"
     style="font-size:12px;fill:none;fill-rule:evenodd;stroke:#ff0000;stroke-width:0.1;stroke-linecap:round"
     vector-effect="non-scaling-stroke"
     sodipodi:nodetypes="cccccccccccccccccccccccccccccccccccccccccccccccccc" />
  <path
     d="m 212,141.95853 v 10.813 h -3 v 7.125 h 3 v 7.125 h -3 v 7.125 h 3 v 7.95121 l 8.063,-0.13921 h 7.125 7.125 7.125 7.125 7.125 7.125 7.125 7.125 7.125 7.125 7.125 7.125 7.125 7.125 7.125 7.125 7.125 7.125 7.125 7.125 7.125 7.125 15.18231 l 0.005,-7.812 h 3 v -7.125 h -3 v -7.125 h 3 v -7.125 h -3 v -7.125 -3.688 z"
     id="right_outsideCutPath-5"
     stroke="#FF0000"
     stroke-width="0.1"
     style="font-size:12px;fill:none;fill-rule:evenodd;stroke:#ff0000;stroke-width:0.1;stroke-linecap:round"
     vector-effect="non-scaling-stroke"
     sodipodi:nodetypes="ccccccccccccccccccccccccccccccccccccccccccccc" />
  <rect
     style="display:inline;fill:#000000;fill-opacity:0;stroke:#000000;stroke-width:0.289028;stroke-miterlimit:4;stroke-dasharray:none"
     id="rect2-5-1-2"
     width="24.210972"
     height="16.710972"
     x="-127.11111"
     y="109.84897"
     transform="scale(-1,1)" />
  <ellipse
     style="fill:none;stroke-width:3"
     id="path1"
     ry="13.011068"
     rx="14.085377"
     cy="80.09565"
     cx="108.6245" />
  <path
     style="fill:none;stroke-width:3"
     id="path2"
     sodipodi:type="arc"
     sodipodi:cx="115.3091"
     sodipodi:cy="78.543869"
     sodipodi:rx="17.188934"
     sodipodi:ry="12.652965"
     sodipodi:start="0.033949217"
     sodipodi:end="5.8163418"
     sodipodi:arc-type="slice"
     d="m 132.48813,78.973345 a 17.188934,12.652965 0 0 1 -15.61274,12.170848 17.188934,12.652965 0 0 1 -18.354151,-9.88296 17.188934,12.652965 0 0 1 11.028911,-14.639047 17.188934,12.652965 0 0 1 21.10855,6.226966 l -15.3496,5.694717 z" />
  <rect
     style="display:inline;fill:#000000;fill-opacity:0;stroke:#000000;stroke-width:0.289026;stroke-miterlimit:4;stroke-dasharray:none"
     id="rect2-5-19-3"
     width="29.701885"
     height="28.710974"
     x="-123.5089"
     y="147.51743"
     transform="scale(-1,1)"
     ry="14.105487"
     rx="14.850943" />
  <rect
     style="display:inline;fill:#000000;fill-opacity:0;stroke:#000000;stroke-width:0.289028;stroke-miterlimit:4;stroke-dasharray:none"
     id="rect2-5-1-2-4"
     width="24.210972"
     height="16.710972"
     x="-125.98132"
     y="153.88397"
     transform="scale(-1,1)" />
</svg>
